g group0
v 0.5 -4.4803904111557579e-017 -0.40000000000000002
vt 1.5927182979531665e-304 1.5928921347655918e-304
vn 0.75716274672065842 -2.7701680875290883e-017 -0.6532262816041835
v 4.4803904111557579e-017 -4.4803904111557579e-017 -0.40000000000000002
vt 1.5927182979531665e-304 1.5928921347655918e-304
vn 0 0 -1
v 0.43301200000000006 0.24999999999999997 -0.40000000000000002
vt 1.5927182979531665e-304 1.5928921347655918e-304
vn 0.65572113231614293 0.37858191736265806 -0.65322701144399198
v 0.25000000000000006 0.43301199999999995 -0.40000000000000002
vt 1.5927182979531665e-304 1.5928921347655918e-304
vn 0.37858191107259714 0.65572113796981413 -0.65322700941417922
v -2.1855599955196095e-008 0.5 -0.40000000000000002
vt 1.5927182979531665e-304 1.5928921347655918e-304
vn -1.6548396283678095e-008 0.75716274672065864 -0.65322628160418295
v -0.24999999999999997 0.43301199999999995 -0.40000000000000002
vt 1.5927182979531665e-304 1.5928921347655918e-304
vn -0.37858192365272003 0.65572112666247029 -0.65322701347380518
v -0.43301199999999995 0.24999999999999997 -0.40000000000000002
vt 1.5927182979531665e-304 1.5928921347655918e-304
vn -0.65572114362353628 0.37858190478247955 -0.65322700738434825
v -0.5 -4.3711400044803902e-008 -0.40000000000000002
vt 1.5927182979531665e-304 1.5928921347655918e-304
vn -0.75716274672065897 -3.3096944026296459e-008 -0.65322628160418195
v -0.43301199999999995 -0.25000000000000006 -0.40000000000000002
vt 1.5927182979531665e-304 1.5928921347655918e-304
vn -0.65572112100874513 -0.37858192994284035 -0.65322701550363704
v -0.24999999999999997 -0.43301200000000006 -0.40000000000000002
vt 1.5927182979531665e-304 1.5928921347655918e-304
vn -0.37858189849242024 -0.65572114927720582 -0.65322700535453593
v 6.5567000044803908e-008 -0.5 -0.40000000000000002
vt 1.5927182979531665e-304 1.5928921347655918e-304
vn 4.9645340337676475e-008 -0.75716274672065953 -0.6532262816041805
v 0.25000000000000006 -0.43301200000000006 -0.40000000000000002
vt 1.5927182979531665e-304 1.5928921347655918e-304
vn 0.37858193623290409 -0.65572111535507083 -0.65322701753345092
v 0.43301200000000006 -0.25000000000000006 -0.40000000000000002
vt 1.5927182979531665e-304 1.5928921347655918e-304
vn 0.65572113231614282 -0.37858191736265795 -0.65322701144399198
v 0.5 -4.4803904111557579e-017 0.40000000000000002
vt 1.5927182979531665e-304 1.5928921347655918e-304
vn 0.75716274672065842 2.4238970765879524e-017 0.6532262816041835
v 0.43301200000000006 0.24999999999999997 0.40000000000000002
vt 1.5927182979531665e-304 1.5928921347655918e-304
vn 0.65572113231614282 0.37858191736265795 0.65322701144399198
v 0.25000000000000006 0.43301199999999995 0.40000000000000002
vt 1.5927182979531665e-304 1.5928921347655918e-304
vn 0.37858191107259714 0.65572113796981424 0.65322700941417899
v -2.1855599955196095e-008 0.5 0.40000000000000002
vt 1.5927182979531665e-304 1.5928921347655918e-304
vn -1.6548396269827256e-008 0.75716274672065864 0.65322628160418306
v -0.24999999999999997 0.43301199999999995 0.40000000000000002
vt 1.5927182979531665e-304 1.5928921347655918e-304
vn -0.37858192365272003 0.65572112666247029 0.65322701347380518
v -0.43301199999999995 0.24999999999999997 0.40000000000000002
vt 1.5927182979531665e-304 1.5928921347655918e-304
vn -0.65572114362353628 0.37858190478247944 0.65322700738434802
v -0.5 -4.3711400044803902e-008 0.40000000000000002
vt 1.5927182979531665e-304 1.5928921347655918e-304
vn -0.75716274672065897 -3.3096944026296459e-008 0.65322628160418195
v -0.43301199999999995 -0.25000000000000006 0.40000000000000002
vt 1.5927182979531665e-304 1.5928921347655918e-304
vn -0.65572112100874513 -0.3785819299428404 0.65322701550363715
v -0.24999999999999997 -0.43301200000000006 0.40000000000000002
vt 1.5927182979531665e-304 1.5928921347655918e-304
vn -0.37858189849242035 -0.65572114927720582 0.65322700535453593
v 6.5567000044803908e-008 -0.5 0.40000000000000002
vt 1.5927182979531665e-304 1.5928921347655918e-304
vn 4.9645340296123957e-008 -0.75716274672065953 0.6532262816041805
v 0.25000000000000006 -0.43301200000000006 0.40000000000000002
vt 1.5927182979531665e-304 1.5928921347655918e-304
vn 0.37858193623290409 -0.65572111535507083 0.65322701753345092
v 0.43301200000000006 -0.25000000000000006 0.40000000000000002
vt 1.5927182979531665e-304 1.5928921347655918e-304
vn 0.65572113231614293 -0.37858191736265806 0.65322701144399198
v 4.4803904111557579e-017 -4.4803904111557579e-017 0.40000000000000002
vt 1.5927182979531665e-304 1.5928921347655918e-304
vn 0 0 1
f 3/3/3 1/1/1 2/2/2
f 4/4/4 3/3/3 2/2/2
f 5/5/5 4/4/4 2/2/2
f 6/6/6 5/5/5 2/2/2
f 7/7/7 6/6/6 2/2/2
f 8/8/8 7/7/7 2/2/2
f 9/9/9 8/8/8 2/2/2
f 10/10/10 9/9/9 2/2/2
f 11/11/11 10/10/10 2/2/2
f 12/12/12 11/11/11 2/2/2
f 13/13/13 12/12/12 2/2/2
f 1/1/1 13/13/13 2/2/2
f 15/15/15 14/14/14 1/1/1
f 3/3/3 15/15/15 1/1/1
f 16/16/16 15/15/15 3/3/3
f 4/4/4 16/16/16 3/3/3
f 17/17/17 16/16/16 4/4/4
f 5/5/5 17/17/17 4/4/4
f 18/18/18 17/17/17 5/5/5
f 6/6/6 18/18/18 5/5/5
f 19/19/19 18/18/18 6/6/6
f 7/7/7 19/19/19 6/6/6
f 20/20/20 19/19/19 7/7/7
f 8/8/8 20/20/20 7/7/7
f 21/21/21 20/20/20 8/8/8
f 9/9/9 21/21/21 8/8/8
f 22/22/22 21/21/21 9/9/9
f 10/10/10 22/22/22 9/9/9
f 23/23/23 22/22/22 10/10/10
f 11/11/11 23/23/23 10/10/10
f 24/24/24 23/23/23 11/11/11
f 12/12/12 24/24/24 11/11/11
f 25/25/25 24/24/24 12/12/12
f 13/13/13 25/25/25 12/12/12
f 14/14/14 25/25/25 13/13/13
f 1/1/1 14/14/14 13/13/13
f 14/14/14 15/15/15 26/26/26
f 15/15/15 16/16/16 26/26/26
f 16/16/16 17/17/17 26/26/26
f 17/17/17 18/18/18 26/26/26
f 18/18/18 19/19/19 26/26/26
f 19/19/19 20/20/20 26/26/26
f 20/20/20 21/21/21 26/26/26
f 21/21/21 22/22/22 26/26/26
f 22/22/22 23/23/23 26/26/26
f 23/23/23 24/24/24 26/26/26
f 24/24/24 25/25/25 26/26/26
f 25/25/25 14/14/14 26/26/26
