g group0
v -0.5 0.5 0.10000000000000001
vt 1 0
vn -0.57735026918962573 0.57735026918962573 0.57735026918962584
v -0.5 -0.5 0.10000000000000001
vt 1 0
vn -0.57735026918962584 -0.57735026918962584 0.57735026918962573
v 0.5 -0.5 0.10000000000000001
vt 1 0
vn 0.57735026918962573 -0.57735026918962573 0.57735026918962584
v 0.5 0.5 0.10000000000000001
vt 1 0
vn 0.57735026918962584 0.57735026918962584 0.57735026918962573
v -0.5 0.5 -0.10000000000000001
vt -1 0
vn -0.57735026918962584 0.57735026918962584 -0.57735026918962573
v 0.5 0.5 -0.10000000000000001
vt -1 0
vn 0.57735026918962573 0.57735026918962573 -0.57735026918962584
v -0.5 -0.5 -0.10000000000000001
vt -1 0
vn -0.57735026918962573 -0.57735026918962573 -0.57735026918962584
v 0.5 -0.5 -0.10000000000000001
vt -1 0
vn 0.57735026918962584 -0.57735026918962584 -0.57735026918962573
f 3/3/3 1/1/1 2/2/2
f 4/4/4 1/1/1 3/3/3
f 4/4/4 5/5/5 1/1/1
f 6/6/6 5/5/5 4/4/4
f 6/6/6 7/7/7 5/5/5
f 8/8/8 7/7/7 6/6/6
f 8/8/8 2/2/2 7/7/7
f 3/3/3 2/2/2 8/8/8
f 8/8/8 4/4/4 3/3/3
f 6/6/6 4/4/4 8/8/8
f 2/2/2 5/5/5 7/7/7
f 1/1/1 5/5/5 2/2/2
